<?xml version="1.0" standalone="no"?>
<!DOCTYPE svg PUBLIC "-//W3C//DTD SVG 20010904//EN"
 "http://www.w3.org/TR/2001/REC-SVG-20010904/DTD/svg10.dtd">
<svg version="1.0" xmlns="http://www.w3.org/2000/svg"
 width="876.000000pt" height="876.000000pt" viewBox="0 0 876.000000 876.000000"
 preserveAspectRatio="xMidYMid meet">
<metadata>
Created by potrace 1.11, written by Peter Selinger 2001-2013
</metadata>
<g transform="translate(0.000000,876.000000) scale(0.100000,-0.100000)"
fill="#000000" stroke="none">
<path d="M5462 7607 c-150 -294 -282 -482 -387 -555 -46 -31 -51 -38 -62 -93
-27 -136 -98 -210 -208 -217 l-63 -4 -56 -83 c-67 -99 -147 -182 -183 -191
-34 -9 -54 4 -78 52 -18 36 -20 60 -21 294 -1 206 -4 266 -18 314 -23 84 -66
153 -133 219 -68 66 -188 156 -180 134 42 -109 75 -271 83 -408 17 -299 -69
-627 -236 -894 l-38 -60 24 -105 c54 -237 67 -433 40 -575 -8 -38 -13 -71 -12
-72 1 -1 29 35 63 81 137 183 296 310 430 344 66 17 78 24 182 117 225 200
394 305 493 305 45 0 58 6 126 55 115 84 230 138 306 143 55 4 65 1 93 -22 47
-39 57 -82 50 -210 -9 -161 -71 -382 -202 -719 l-44 -112 126 130 c202 209
374 433 408 532 11 33 18 38 61 48 111 26 178 71 213 141 34 66 27 164 -18
261 l-33 71 65 136 c135 281 275 514 378 629 l51 58 -53 -25 c-222 -100 -289
-129 -398 -170 -266 -100 -497 -139 -595 -102 -128 49 -179 214 -142 464 9 62
26 142 37 178 11 36 19 67 17 69 -2 2 -40 -69 -86 -158z"/>
<path d="M7864 7109 c-93 -95 -218 -185 -352 -252 -100 -50 -124 -66 -129 -87
-3 -14 -21 -55 -41 -93 -41 -79 -155 -192 -250 -249 -68 -41 -203 -103 -244
-113 -16 -4 -28 -11 -28 -15 0 -19 -107 -164 -182 -246 -181 -199 -411 -383
-708 -565 l-105 -64 130 -7 c387 -21 584 -128 585 -319 0 -88 -56 -225 -126
-309 -20 -23 -23 -33 -15 -49 17 -31 13 -88 -8 -129 -25 -48 -79 -100 -166
-158 -38 -25 -61 -43 -50 -39 145 54 307 59 408 12 113 -52 212 -194 256 -367
20 -81 41 -257 41 -351 0 -52 -3 -60 -32 -84 -29 -25 -38 -27 -99 -23 -55 3
-83 12 -157 48 l-89 45 70 -70 c174 -175 257 -357 229 -507 -13 -71 -68 -191
-106 -230 -44 -46 -93 -79 -147 -99 -48 -19 -51 -19 -44 -2 47 107 50 126 50
283 0 183 -19 259 -87 350 -52 70 -86 97 -156 126 -109 45 -271 21 -346 -52
-100 -97 -161 -337 -167 -664 -4 -214 0 -410 9 -410 4 1 27 33 52 72 25 39 95
122 157 185 137 141 158 141 108 -2 -56 -159 -288 -494 -646 -931 -178 -217
-494 -588 -528 -618 -11 -11 -21 -23 -21 -28 0 -5 35 21 78 57 100 87 700 587
1122 936 549 455 749 619 804 664 34 28 185 151 336 275 150 124 327 269 393
323 66 53 113 97 106 97 -8 -1 -41 -7 -74 -15 -142 -34 -187 -11 -150 78 6 14
2 17 -29 17 -75 0 -136 45 -136 99 0 51 153 175 358 289 74 41 85 51 106 96
13 28 54 84 92 125 38 41 64 72 59 70 -6 -3 -36 -17 -69 -32 -113 -52 -265
-90 -414 -103 l-84 -7 18 34 c14 26 19 56 19 129 0 52 -2 108 -5 125 -5 27 -2
30 35 41 148 44 258 125 365 268 75 100 180 322 168 356 -2 7 -20 -1 -45 -19
-61 -44 -176 -100 -222 -107 -60 -10 -89 1 -108 41 -14 30 -15 42 -4 90 29
128 144 291 249 353 l45 26 -73 12 c-99 17 -210 45 -210 53 1 3 21 21 46 39
146 108 263 383 289 682 l7 75 -29 -35 c-106 -131 -246 -188 -483 -196 l-135
-5 25 21 c14 11 51 42 83 67 57 47 121 116 395 428 135 155 254 275 337 344
l40 32 -58 -25 c-116 -51 -228 -70 -320 -55 -34 6 -63 12 -65 13 -6 6 39 114
88 211 27 55 48 100 47 102 -2 1 -30 -25 -63 -58z"/>
<path d="M5289 5934 c-45 -49 -234 -196 -359 -279 -242 -161 -480 -260 -660
-273 l-95 -8 40 -21 c160 -85 203 -282 119 -552 l-26 -84 -51 89 c-69 119
-204 255 -302 306 -105 54 -175 71 -291 72 l-101 1 -7 88 c-15 222 -120 388
-303 480 -115 59 -321 93 -488 82 -165 -11 -558 -85 -583 -110 -3 -2 19 -15
49 -27 112 -46 328 -159 434 -229 126 -82 259 -209 294 -281 12 -26 25 -72 28
-102 l6 -55 56 -16 c66 -20 136 -58 145 -80 14 -38 -47 -86 -151 -120 -55 -17
-66 -30 -34 -40 10 -3 37 -23 61 -45 38 -35 41 -42 29 -56 -12 -14 -28 -16
-119 -10 l-105 7 41 -35 c137 -117 85 -287 -147 -477 -289 -236 -408 -257
-542 -93 -26 31 -61 79 -79 105 -17 27 -33 48 -34 46 -1 -1 7 -29 18 -62 22
-65 35 -201 24 -259 -4 -19 -22 -56 -41 -81 -23 -30 -35 -56 -35 -78 0 -19 26
-87 66 -169 40 -83 68 -156 72 -183 7 -64 -19 -117 -76 -155 -119 -79 -215
-55 -271 65 -10 22 -31 67 -47 100 l-28 60 -7 -120 c-7 -118 -17 -163 -57
-241 -48 -94 -162 -168 -279 -180 -55 -6 -65 -11 -99 -46 -85 -90 -114 -86
-114 16 0 33 7 96 15 139 18 93 17 87 5 87 -34 0 -124 47 -173 91 -31 28 -57
49 -57 46 0 -2 13 -30 29 -63 16 -32 35 -86 41 -118 23 -113 -7 -188 -108
-268 -74 -58 -138 -150 -147 -212 -4 -24 -5 -73 -3 -110 1 -36 1 -66 -2 -66
-28 0 -160 121 -160 147 0 7 -4 13 -8 13 -4 0 -67 -35 -140 -79 -73 -43 -160
-89 -193 -101 l-60 -23 43 -18 c24 -9 95 -36 158 -59 433 -158 779 -319 1065
-495 251 -155 689 -460 849 -592 16 -13 30 -22 33 -19 2 2 -7 26 -20 53 -71
140 -102 309 -78 425 26 121 122 223 264 279 l72 27 6 209 c7 218 23 327 61
416 24 56 50 77 96 77 74 0 133 -61 198 -206 l39 -87 175 6 c416 15 745 101
935 245 99 75 150 182 191 400 11 57 14 95 8 100 -14 13 -273 69 -434 93 -92
14 -194 22 -280 23 -131 0 -139 -1 -280 -43 -241 -72 -344 -93 -436 -89 l-81
3 -64 -110 c-36 -60 -69 -110 -74 -110 -5 0 -17 14 -25 30 -11 22 -15 64 -15
165 0 127 2 140 31 210 57 142 132 232 311 372 58 46 135 107 172 137 36 29
82 66 101 82 62 49 282 228 373 302 49 40 92 73 97 75 11 4 -86 -239 -146
-365 -62 -130 -139 -258 -185 -308 l-39 -42 77 -7 c338 -30 842 -131 999 -201
31 -14 59 -24 60 -22 2 2 -7 59 -21 128 -99 509 -100 958 -2 1257 l22 67 6
-145 c7 -162 25 -249 70 -345 29 -60 119 -165 142 -165 17 0 -11 -127 -47
-211 -9 -20 81 -84 190 -136 102 -48 208 -57 278 -24 56 28 100 77 136 153
l28 59 7 -43 c12 -71 52 -177 80 -214 44 -58 81 -76 141 -70 209 23 806 340
989 526 27 27 47 51 44 53 -2 2 -84 11 -183 21 -228 22 -429 52 -530 77 -81
21 -156 53 -156 67 0 5 44 21 98 36 122 34 199 68 285 124 57 37 117 96 117
114 0 3 -22 8 -48 12 -71 9 -145 50 -167 90 -18 33 -18 36 -1 83 59 158 209
361 305 412 48 26 7 21 -121 -14 -470 -131 -942 -282 -1121 -360 -11 -5 9 34
51 96 83 123 132 220 168 326 22 65 25 91 22 154 -4 66 -11 87 -51 167 -65
125 -62 164 18 281 40 58 42 76 4 35z"/>
<path d="M4516 4037 l0 -162 41 -100 c69 -172 98 -345 98 -605 0 -171 1 -176
28 -231 15 -31 27 -61 27 -66 0 -6 -17 -14 -37 -18 -60 -10 -200 -71 -267
-114 -64 -42 -134 -107 -124 -116 2 -3 34 8 69 24 172 78 273 92 419 60 87
-19 135 -23 280 -24 198 0 277 16 336 67 l32 29 20 -28 c41 -58 74 -138 113
-273 l19 -65 -6 100 c-2 55 -9 219 -14 365 -9 268 -19 353 -46 424 -8 21 -11
42 -7 47 4 4 45 21 89 38 87 33 186 93 219 131 l20 23 -45 -6 c-25 -4 -90 -14
-145 -23 -65 -10 -179 -17 -327 -19 -147 -2 -239 -7 -265 -15 -127 -42 -197
-140 -197 -276 0 -61 4 -80 34 -138 60 -119 156 -181 238 -155 37 12 96 50
120 79 26 30 52 96 52 131 0 44 -30 86 -77 105 -38 16 -72 11 -122 -19 l-34
-20 37 -19 c19 -10 43 -29 52 -42 14 -22 14 -27 0 -55 -46 -88 -141 -59 -180
56 -56 165 40 307 198 290 109 -11 256 -119 292 -214 32 -82 -1 -236 -70 -326
-64 -84 -109 -99 -310 -100 -131 -1 -197 17 -244 66 -61 63 -62 68 -92 515
l-20 293 -33 60 c-17 33 -43 80 -55 104 -17 32 -26 71 -32 144 -5 56 -14 118
-19 138 -12 42 -46 103 -58 103 -5 0 -8 -73 -7 -163z"/>
<path d="M4517 2585 c-112 -40 -315 -134 -679 -315 -388 -193 -418 -203 -550
-181 -131 21 -312 129 -420 248 l-36 41 -11 -26 c-45 -113 -41 -326 10 -540
19 -80 19 -85 3 -110 -10 -15 -27 -35 -38 -44 -37 -32 -149 -96 -226 -129 -41
-18 -77 -34 -78 -35 -2 -1 15 -19 38 -40 82 -74 118 -165 127 -323 4 -63 9
-97 14 -88 15 26 57 29 106 7 57 -25 132 -80 234 -172 l77 -68 13 32 c17 41
15 110 -5 180 -20 65 -104 235 -141 284 -15 19 -22 34 -18 34 57 -1 460 -332
770 -634 40 -38 75 -67 78 -64 3 3 -1 36 -9 75 -15 69 -79 446 -91 534 -8 57
8 98 63 160 69 78 196 159 557 357 363 199 431 241 548 349 102 95 263 140
457 130 63 -4 144 -13 179 -21 l63 -14 -6 31 c-18 91 -81 178 -160 220 -38 20
-55 22 -226 22 -208 1 -229 5 -406 80 -57 25 -118 45 -136 45 -18 -1 -64 -12
-101 -25z"/>
</g>
</svg>
